<svg width="35" height="34" viewBox="0 0 35 34" fill="none" xmlns="http://www.w3.org/2000/svg">
<path d="M12.7781 33H22.3781C30.3781 33 33.5781 29.8 33.5781 21.8V12.2C33.5781 4.2 30.3781 1 22.3781 1H12.7781C4.77812 1 1.57812 4.2 1.57812 12.2V21.8C1.57812 29.8 4.77812 33 12.7781 33Z" stroke="black" stroke-width="2" stroke-linecap="round" stroke-linejoin="round"/>
<path d="M17.5781 6.35156C16.1798 6.35156 14.7951 6.62699 13.5031 7.16213C12.2112 7.69726 11.0373 8.48162 10.0485 9.47042C8.05157 11.4674 6.92969 14.1759 6.92969 17C6.92969 19.8241 8.05157 22.5326 10.0485 24.5296C11.0373 25.5184 12.2112 26.3027 13.5031 26.8379C14.7951 27.373 16.1798 27.6484 17.5781 27.6484C20.4023 27.6484 23.1107 26.5266 25.1077 24.5296C27.1047 22.5326 28.2266 19.8241 28.2266 17C28.2266 15.6016 27.9511 14.2169 27.416 12.925C26.8809 11.6331 26.0965 10.4592 25.1077 9.47042C24.1189 8.48162 22.945 7.69726 21.6531 7.16213C20.3612 6.62699 18.9765 6.35156 17.5781 6.35156ZM12.3284 23.6872C12.7863 22.7289 15.5762 21.7918 17.5781 21.7918C19.58 21.7918 22.3699 22.7289 22.8278 23.6872C21.3796 24.8373 19.5587 25.5188 17.5781 25.5188C15.5975 25.5188 13.7766 24.8373 12.3284 23.6872ZM24.3505 22.1432C22.8278 20.2904 19.1328 19.6621 17.5781 19.6621C16.0235 19.6621 12.3284 20.2904 10.8057 22.1432C9.71958 20.727 9.05938 18.938 9.05938 17C9.05938 12.304 12.8822 8.48125 17.5781 8.48125C22.2741 8.48125 26.0969 12.304 26.0969 17C26.0969 18.938 25.4367 20.727 24.3505 22.1432ZM17.5781 10.6109C15.5123 10.6109 13.8512 12.2721 13.8512 14.3379C13.8512 16.4037 15.5123 18.0648 17.5781 18.0648C19.6439 18.0648 21.3051 16.4037 21.3051 14.3379C21.3051 12.2721 19.6439 10.6109 17.5781 10.6109ZM17.5781 15.9352C17.1545 15.9352 16.7482 15.7669 16.4487 15.4673C16.1491 15.1678 15.9809 14.7615 15.9809 14.3379C15.9809 13.9143 16.1491 13.508 16.4487 13.2085C16.7482 12.9089 17.1545 12.7406 17.5781 12.7406C18.0017 12.7406 18.408 12.9089 18.7076 13.2085C19.0071 13.508 19.1754 13.9143 19.1754 14.3379C19.1754 14.7615 19.0071 15.1678 18.7076 15.4673C18.408 15.7669 18.0017 15.9352 17.5781 15.9352Z" fill="black"/>
</svg>
