<svg width="35" height="34" viewBox="0 0 35 34" fill="none" xmlns="http://www.w3.org/2000/svg">
<path d="M12.7781 33H22.3781C30.3781 33 33.5781 29.8 33.5781 21.8V12.2C33.5781 4.2 30.3781 1 22.3781 1H12.7781C4.77812 1 1.57812 4.2 1.57812 12.2V21.8C1.57812 29.8 4.77812 33 12.7781 33Z" stroke="black" stroke-width="2" stroke-linecap="round" stroke-linejoin="round"/>
<path d="M25.5781 8.5H9.57812C8.47812 8.5 7.57812 9.4 7.57812 10.5V22.5C7.57812 23.61 8.47812 24.5 9.57812 24.5H13.5781L17.5781 28.5L21.5781 24.5H25.5781C26.6881 24.5 27.5781 23.61 27.5781 22.5V10.5C27.5781 9.4 26.6881 8.5 25.5781 8.5ZM25.5781 22.5H20.7481L17.5781 25.67L14.4081 22.5H9.57812V10.5H25.5781V22.5ZM16.3281 20.21L12.8281 16.71L14.2381 15.29L16.3281 17.38L20.9181 12.8L22.3281 14.21L16.3281 20.21Z" fill="black"/>
</svg>
