<svg width="35" height="34" viewBox="0 0 35 34" fill="none" xmlns="http://www.w3.org/2000/svg">
<path d="M12.7781 33H22.3781C30.3781 33 33.5781 29.8 33.5781 21.8V12.2C33.5781 4.2 30.3781 1 22.3781 1H12.7781C4.77812 1 1.57812 4.2 1.57812 12.2V21.8C1.57812 29.8 4.77812 33 12.7781 33Z" stroke="black" stroke-width="2" stroke-linecap="round" stroke-linejoin="round"/>
<path d="M25.2802 13.3892V22.7767C25.2802 25.6652 23.5568 26.628 21.4289 26.628H13.7263C11.5985 26.628 9.875 25.6652 9.875 22.7767V13.3892C9.875 10.26 11.5985 9.53784 13.7263 9.53784C13.7263 10.1348 13.967 10.674 14.3617 11.0687C14.7565 11.4635 15.2957 11.7042 15.8927 11.7042H19.2626C20.4565 11.7042 21.4289 10.7317 21.4289 9.53784C23.5568 9.53784 25.2802 10.26 25.2802 13.3892Z" stroke="black" stroke-width="2" stroke-linecap="round" stroke-linejoin="round"/>
<path d="M21.4292 9.53794C21.4292 10.7318 20.4567 11.7043 19.2628 11.7043H15.8929C15.296 11.7043 14.7568 11.4636 14.362 11.0688C13.9672 10.6741 13.7266 10.1349 13.7266 9.53794C13.7266 8.34404 14.699 7.37158 15.8929 7.37158H19.2628C19.8598 7.37158 20.399 7.61229 20.7937 8.00705C21.1885 8.40181 21.4292 8.94099 21.4292 9.53794Z" stroke="black" stroke-width="2" stroke-linecap="round" stroke-linejoin="round"/>
<path d="M13.7266 17.9626H17.5779" stroke="black" stroke-width="2" stroke-linecap="round" stroke-linejoin="round"/>
<path d="M13.7266 21.814H21.4292" stroke="black" stroke-width="2" stroke-linecap="round" stroke-linejoin="round"/>
</svg>
