<svg xmlns="http://www.w3.org/2000/svg" width="16" height="22" viewBox="0 0 16 22" fill="none">
                                                        <path d="M8 16.3945C8.53043 16.3945 9.03914 16.1838 9.41421 15.8087C9.78929 15.4337 10 14.925 10 14.3945C10 13.2845 9.1 12.3945 8 12.3945C7.46957 12.3945 6.96086 12.6052 6.58579 12.9803C6.21071 13.3554 6 13.8641 6 14.3945C6 14.925 6.21071 15.4337 6.58579 15.8087C6.96086 16.1838 7.46957 16.3945 8 16.3945ZM14 7.39453C14.5304 7.39453 15.0391 7.60525 15.4142 7.98032C15.7893 8.35539 16 8.8641 16 9.39453V19.3945C16 19.925 15.7893 20.4337 15.4142 20.8087C15.0391 21.1838 14.5304 21.3945 14 21.3945H2C1.46957 21.3945 0.960859 21.1838 0.585786 20.8087C0.210714 20.4337 0 19.925 0 19.3945V9.39453C0 8.28453 0.9 7.39453 2 7.39453H3V5.39453C3 4.06845 3.52678 2.79668 4.46447 1.859C5.40215 0.921315 6.67392 0.394531 8 0.394531C8.65661 0.394531 9.30679 0.52386 9.91342 0.775134C10.52 1.02641 11.0712 1.3947 11.5355 1.859C11.9998 2.32329 12.3681 2.87449 12.6194 3.48111C12.8707 4.08774 13 4.73792 13 5.39453V7.39453H14ZM8 2.39453C7.20435 2.39453 6.44129 2.7106 5.87868 3.27321C5.31607 3.83582 5 4.59888 5 5.39453V7.39453H11V5.39453C11 4.59888 10.6839 3.83582 10.1213 3.27321C9.55871 2.7106 8.79565 2.39453 8 2.39453Z" fill="white"></path>
                                                    </svg>