<svg xmlns="http://www.w3.org/2000/svg" width="20" height="20" viewBox="0 0 20 20" fill="none">
                                                        <g clip-path="url(#clip0_631_2)">
                                                            <path d="M19.938 5.05052C19.7932 4.76099 19.4407 4.64482 19.1517 4.78845L16.808 5.96032C16.5185 6.10509 16.4012 6.457 16.546 6.74654C16.6905 7.03489 17.0407 7.15337 17.3322 7.00861L19.6759 5.83673C19.9654 5.69196 20.0827 5.34005 19.938 5.05052Z" fill="white"></path>
                                                            <path d="M19.6759 11.8196L17.3322 10.6477C17.0426 10.5035 16.6913 10.6196 16.546 10.9098C16.4012 11.1993 16.5185 11.5512 16.808 11.696L19.1517 12.8678C19.4441 13.013 19.7939 12.8932 19.938 12.6058C20.0827 12.3162 19.9654 11.9643 19.6759 11.8196Z" fill="white"></path>
                                                            <path d="M13.4764 9.45313H4.68746V6.44536C4.68746 4.83 6.0018 3.51571 7.61711 3.51571C9.23242 3.51571 10.5468 4.83004 10.5468 6.44536V7.61723C10.5468 7.9411 10.8088 8.20317 11.1327 8.20317H13.4764C13.8003 8.20317 14.0623 7.9411 14.0623 7.61723V6.44536C14.0623 2.89145 11.171 0.00012207 7.61711 0.00012207C4.0632 0.00012207 1.17187 2.89145 1.17187 6.44536V9.56106C0.491328 9.80375 0 10.4481 0 11.2109V18.2421C0 19.2114 0.788516 19.9998 1.75777 19.9998H13.4764C14.4457 19.9998 15.2342 19.2113 15.2342 18.2421V11.2109C15.2342 10.2416 14.4457 9.45313 13.4764 9.45313ZM8.20305 15.2045V17.0702C8.20305 17.3941 7.94098 17.6561 7.61711 17.6561C7.29324 17.6561 7.03117 17.3941 7.03117 17.0702V15.2045C6.35062 14.9618 5.8593 14.3175 5.8593 13.5547C5.8593 12.5854 6.64781 11.7968 7.61711 11.7968C8.58641 11.7968 9.37488 12.5854 9.37488 13.5547C9.37488 14.3175 8.88355 14.9618 8.20305 15.2045Z" fill="white"></path>
                                                            <path d="M19.4138 8.24219H17.0701C16.7463 8.24219 16.4842 8.50426 16.4842 8.82812C16.4842 9.15199 16.7463 9.41406 17.0701 9.41406H19.4138C19.7377 9.41406 19.9998 9.15199 19.9998 8.82812C19.9998 8.50426 19.7377 8.24219 19.4138 8.24219Z" fill="white"></path>
                                                        </g>
                                                        <defs>
                                                            <clipPath id="clip0_631_2">
                                                            <rect width="20" height="20" fill="white"></rect>
                                                            </clipPath>
                                                        </defs>
                                                    </svg>