<svg width="35" height="34" viewBox="0 0 35 34" fill="none" xmlns="http://www.w3.org/2000/svg">
<path d="M12.7781 33H22.3781C30.3781 33 33.5781 29.8 33.5781 21.8V12.2C33.5781 4.2 30.3781 1 22.3781 1H12.7781C4.77812 1 1.57812 4.2 1.57812 12.2V21.8C1.57812 29.8 4.77812 33 12.7781 33Z" stroke="black" stroke-width="2" stroke-linecap="round" stroke-linejoin="round"/>
<path d="M14.2571 21.1408L14.257 21.14C14.2118 20.6765 13.7854 20.3266 13.3297 20.3718C12.8559 20.4169 12.5161 20.8348 12.5611 21.2991C12.7357 23.1491 13.331 24.5135 14.4309 25.4112C15.5274 26.3063 17.1001 26.7165 19.1844 26.7165H19.3054C21.6095 26.7165 23.29 26.2244 24.3915 25.1228C25.4931 24.0213 25.9852 22.3408 25.9852 20.0368V13.9634C25.9852 11.6593 25.4931 9.97887 24.3915 8.8773C23.29 7.77574 21.6095 7.28359 19.3054 7.28359H19.1844C17.0859 7.28359 15.5035 7.70086 14.4045 8.61049C13.3022 9.52276 12.7121 10.9084 12.5517 12.7862L12.5517 12.7862L12.5515 12.7881C12.5179 13.2478 12.8542 13.668 13.3314 13.703C13.8096 13.7476 14.2011 13.3933 14.2566 12.9383L14.2567 12.9383L14.2572 12.9327C14.3814 11.4609 14.781 10.4873 15.543 9.87458C16.3103 9.25767 17.4757 8.98084 19.1937 8.98084H19.3148C21.2 8.98084 22.4311 9.31593 23.1967 10.0815C23.9622 10.847 24.2973 12.0782 24.2973 13.9634V20.0368C24.2973 21.922 23.9622 23.1531 23.1967 23.9187C22.4311 24.6842 21.2 25.0193 19.3148 25.0193H19.1937C17.4849 25.0193 16.3235 24.7471 15.556 24.141C14.794 23.5394 14.3904 22.5841 14.2571 21.1408Z" fill="black" stroke="black" stroke-width="0.3"/>
<path d="M8.48183 17.8488H19.0822C19.547 17.8488 19.9308 17.4649 19.9308 17.0001C19.9308 16.5354 19.547 16.1515 19.0822 16.1515H8.48183C8.01707 16.1515 7.6332 16.5354 7.6332 17.0001C7.6332 17.4649 8.01707 17.8488 8.48183 17.8488Z" fill="black" stroke="black" stroke-width="0.3"/>
<path d="M9.95923 20.7204C10.1286 20.8898 10.3444 20.9693 10.559 20.9693C10.7696 20.9693 10.9974 20.8923 11.1606 20.7186C11.4875 20.3897 11.4869 19.849 11.1588 19.5209L8.638 17.0002L11.1588 14.4794C11.4875 14.1507 11.4875 13.6086 11.1588 13.2799C10.83 12.9512 10.2879 12.9512 9.95923 13.2799L10.0653 13.3859L9.95923 13.2799L6.83872 16.4004C6.51001 16.7291 6.51001 17.2712 6.83872 17.5999L9.95923 20.7204Z" fill="black" stroke="black" stroke-width="0.3"/>
</svg>
