<svg width="35" height="34" viewBox="0 0 35 34" fill="none" xmlns="http://www.w3.org/2000/svg">
<path d="M12.7781 33H22.3781C30.3781 33 33.5781 29.8 33.5781 21.8V12.2C33.5781 4.2 30.3781 1 22.3781 1H12.7781C4.77812 1 1.57812 4.2 1.57812 12.2V21.8C1.57812 29.8 4.77812 33 12.7781 33Z" stroke="black" stroke-width="2" stroke-linecap="round" stroke-linejoin="round"/>
<path d="M24.5781 9C25.6881 9 26.5781 9.89 26.5781 11V25C26.5781 26.11 25.6881 27 24.5781 27H10.5781C9.46812 27 8.57812 26.1 8.57812 25V11C8.57812 9.89 9.47812 9 10.5781 9H11.5781V7H13.5781V9H21.5781V7H23.5781V9H24.5781ZM24.5781 25V15H10.5781V25H24.5781ZM24.5781 13V11H10.5781V13H24.5781ZM12.5781 17H14.5781V23H12.5781V17Z" fill="black"/>
</svg>
